<svg xmlns="http://www.w3.org/2000/svg" viewBox="0 0 64 64" role="img" aria-label="Punto Trigo favicon">
  <defs>
    <linearGradient id="grain" x1="0" y1="0" x2="0" y2="1">
      <stop offset="0%" stop-color="#D4920A"/>
      <stop offset="100%" stop-color="#B87A05"/>
    </linearGradient>
  </defs>
  <rect width="64" height="64" rx="14" fill="#0B3D6E"/>
  <path d="M33 12v40" stroke="#FDF8F0" stroke-width="3" stroke-linecap="round"/>
  <path d="M33 18c-5 2-8 5-9 9 4-2 7-4 9-8" fill="url(#grain)"/>
  <path d="M33 25c-5 2-8 5-9 9 4-2 7-4 9-8" fill="url(#grain)"/>
  <path d="M33 32c-5 2-8 5-9 9 4-2 7-4 9-8" fill="url(#grain)"/>
  <path d="M31 18c5 2 8 5 9 9-4-2-7-4-9-8" fill="url(#grain)"/>
  <path d="M31 25c5 2 8 5 9 9-4-2-7-4-9-8" fill="url(#grain)"/>
  <path d="M31 32c5 2 8 5 9 9-4-2-7-4-9-8" fill="url(#grain)"/>
  <circle cx="33" cy="47" r="2" fill="#C41E1E"/>
</svg>
